<svg width="97" height="44" viewBox="0 0 97 44" fill="none" xmlns="http://www.w3.org/2000/svg">
<path d="M88.7246 0H8.27538C3.7124 0 0 3.7124 0 8.27538V35.0918C0 39.6548 3.7124 43.3672 8.27538 43.3672H88.7246C93.2876 43.3672 97 39.6548 97 35.0918V8.27538C97 3.7124 93.2876 0 88.7246 0ZM3.14255 35.0918V8.27538C3.14255 5.4452 5.4452 3.14255 8.27538 3.14255H67.041V40.2246H8.27538C5.4452 40.2246 3.14255 37.922 3.14255 35.0918ZM93.8575 35.0918C93.8575 37.922 91.5548 40.2246 88.7246 40.2246H70.1836V3.14255H88.7246C91.5548 3.14255 93.8575 5.4452 93.8575 8.27538V35.0918Z" fill="white"/>
<path d="M88.7246 19.7041H83.5918V14.5713C83.5918 13.7035 82.8883 13 82.0205 13C81.1527 13 80.4492 13.7035 80.4492 14.5713V19.7041H75.3164C74.4486 19.7041 73.7451 20.4076 73.7451 21.2754C73.7451 22.1431 74.4486 22.8467 75.3164 22.8467H80.4492V27.9795C80.4492 28.8472 81.1527 29.5508 82.0205 29.5508C82.8883 29.5508 83.5918 28.8472 83.5918 27.9795V22.8467H88.7246C89.5924 22.8467 90.2959 22.1431 90.2959 21.2754C90.2959 20.4076 89.5924 19.7041 88.7246 19.7041Z" fill="white"/>
<path d="M20.3168 14.4524C19.8286 12.8254 18.3594 11.7322 16.6505 11.7322C14.9518 11.7322 13.4823 12.8254 12.9942 14.4524L8.4463 29.612C8.197 30.4433 8.66859 31.3193 9.49969 31.5686C10.3312 31.8185 11.2069 31.3463 11.4562 30.5152L12.6288 26.6069H20.6821L21.8547 30.5152C22.059 31.1959 22.6833 31.6354 23.3592 31.6354C23.5085 31.6354 23.6606 31.6138 23.8113 31.5688C24.6424 31.3195 25.1142 30.4435 24.8647 29.6122L20.3168 14.4524ZM13.5716 23.4644L16.0041 15.3555C16.089 15.0725 16.3548 14.8747 16.6603 14.8747C16.9559 14.8747 17.2216 15.0725 17.3064 15.3555L19.7394 23.4644H13.5716Z" fill="white"/>
<path d="M35.0918 11.7322H30.0637C29.1959 11.7322 28.4924 12.4357 28.4924 13.3035V30.0637C28.4924 30.9315 29.1959 31.635 30.0637 31.635H35.0918C39.6548 31.635 43.3672 27.9226 43.3672 23.3596V20.0076C43.3672 15.4446 39.6548 11.7322 35.0918 11.7322ZM40.2246 23.3596C40.2246 26.1898 37.922 28.4924 35.0918 28.4924H31.635V14.8747H35.0918C37.922 14.8747 40.2246 17.1774 40.2246 20.0076V23.3596Z" fill="white"/>
<path d="M53.5281 11.7322H48.5C47.6322 11.7322 46.9287 12.4357 46.9287 13.3035V30.0637C46.9287 30.9315 47.6322 31.635 48.5 31.635H53.5281C58.091 31.635 61.8034 27.9226 61.8034 23.3596V20.0076C61.8034 15.4446 58.091 11.7322 53.5281 11.7322ZM58.6609 23.3596C58.6609 26.1898 56.3582 28.4924 53.5281 28.4924H50.0713V14.8747H53.5281C56.3582 14.8747 58.6609 17.1774 58.6609 20.0076V23.3596Z" fill="white"/>
</svg>
