<svg width="195" height="195" viewBox="0 0 195 195" fill="none" xmlns="http://www.w3.org/2000/svg">
<path d="M61.7821 173.489C47.209 167.306 36.9718 158.072 35.0046 161.726C34.2418 163.291 35.7272 166.583 39.1798 171.12C41.1068 173.167 43.4754 175.576 46.4462 178.025C48.0119 179.149 49.6579 180.273 51.4244 181.478C52.3076 182.04 53.2309 182.682 54.1944 183.244C55.1981 183.726 56.2017 184.248 57.2455 184.77C64.6324 188.704 72.7419 191.153 80.9317 193.04C85.0668 193.682 89.242 194.565 93.4573 194.686L96.6289 194.886C97.6726 194.967 98.7566 195.047 99.8004 194.967L106.143 194.766C114.574 194.083 123.045 192.678 130.994 189.748C135.089 188.543 138.863 186.576 142.757 184.81C144.684 183.927 146.45 182.722 148.297 181.678C150.103 180.554 151.99 179.591 153.717 178.226L157.972 175.054L160.1 173.448L161.866 171.843L165.399 168.631L166.282 167.828L166.724 167.426L166.925 167.226L167.206 166.985L167.246 166.945L167.286 166.905L167.406 166.784L169.133 164.897C171.381 162.328 173.79 159.919 175.717 157.069C177.724 154.299 179.812 151.609 181.417 148.598C188.403 136.915 192.819 123.707 194.344 110.258C195.87 96.8095 194.666 82.9993 190.49 70.1525L188.764 65.3751C188.162 63.8094 187.68 62.1634 186.877 60.678L184.709 56.1014L183.625 53.813C183.224 53.0904 182.782 52.3678 182.341 51.6452L179.731 47.3094C179.29 46.5867 178.888 45.8641 178.366 45.1816L176.801 43.094C174.713 40.3641 172.666 37.3933 170.458 35.2655C163.071 25.9517 153.596 17.7619 142.837 11.8202C132.038 5.75817 119.954 1.94429 107.589 0.579323C95.2238 -0.785644 82.4974 0.258154 70.4536 3.75086L61.5412 6.80197C58.6507 8.0465 55.8003 9.41146 52.9499 10.6961C50.1798 12.2217 47.49 13.8275 44.8003 15.4334C42.1105 17.1998 39.501 19.2473 36.8915 21.1743L35.928 21.8969L35.125 22.6195L33.5192 24.0648L30.3075 26.9553L29.5046 27.6779L29.1031 28.0393L28.7017 28.4006L28.6214 28.521L28.3805 28.8422L26.8148 30.5685L23.6433 34.0612L22.0776 35.8276C21.5958 36.4298 21.1542 37.0721 20.6725 37.7145L17.8622 41.5283C15.8951 44.0174 14.4498 46.8276 12.8038 49.5174C6.58118 60.4773 2.52642 72.6416 0.880433 85.0868C-0.765557 97.5321 -0.042927 110.299 3.00818 122.463C3.40964 123.988 3.69066 125.554 4.21256 126.999L5.73811 131.456C6.26001 132.941 6.70162 134.426 7.34395 135.872L9.31111 140.167C9.9936 141.572 10.5958 143.058 11.3184 144.423L13.687 148.518L16.0557 152.572L18.906 156.547C21.6761 160.722 27.0155 164.175 29.1031 165.098C33.2783 166.744 30.9097 161.846 26.7345 155.061C20.1907 143.54 15.333 130.211 13.3257 115.919C12.9644 114.153 13.0046 112.306 12.8038 110.499L12.5629 107.769L12.4425 106.404V105.039C12.4425 103.233 12.4425 101.386 12.4827 99.5394V98.1745L12.6031 96.8095L12.844 94.0394C13.0046 90.346 13.8075 86.6927 14.4097 83.0394C14.6907 81.1927 15.333 79.4263 15.7746 77.6197C16.2965 75.8131 16.6578 74.0065 17.3805 72.2802C20.1104 63.689 24.5666 55.7802 29.9061 48.6342C31.3112 46.9079 32.5155 44.9809 34.1214 43.4152L36.4097 40.9663L37.5338 39.7619L38.0959 39.1597L38.3769 38.8385L38.5375 38.678L38.5776 38.6378L43.8367 34.021L45.282 32.8568C45.7236 32.4553 46.1652 32.2144 46.6068 31.8933L49.2565 30.0466L51.866 28.1998C52.7492 27.5976 53.793 27.0757 54.7163 26.5538L57.6069 24.9079C58.5704 24.3458 59.5339 23.7838 60.5375 23.3823L66.5996 20.6925C68.6872 19.9699 70.8149 19.2874 72.9025 18.5648C81.3733 16.0757 90.2055 14.8312 99.0376 14.9516C107.87 15.1122 116.622 16.7983 124.932 19.6086L128.023 20.7327L129.589 21.2947L131.074 21.9772L137.056 24.7874L142.717 28.1597C143.198 28.4407 143.68 28.7217 144.122 29.0028L145.447 29.9663L148.096 31.9334L150.746 33.8604L153.195 36.0685L155.644 38.2765L156.888 39.3604L157.009 39.4407L157.249 39.6816L157.852 40.3641L162.709 45.7035C164.114 47.4298 165.239 49.1159 166.523 50.8021C171.461 57.8276 175.596 65.897 178.326 74.3277C180.614 82.7985 181.538 91.5905 181.257 100.302C180.454 128.083 164.757 154.58 141.111 168.711L136.695 171.361L132.038 173.529L129.709 174.653C128.906 174.974 128.103 175.255 127.3 175.536L122.443 177.262C115.819 179.109 109.074 180.675 102.169 180.916C98.7164 181.277 95.2639 181.036 91.8113 180.956C90.085 180.996 88.3989 180.594 86.6726 180.434C84.9865 180.193 83.2201 180.113 81.5339 179.711C78.1617 178.908 74.7091 178.386 71.4573 177.182C69.8113 176.62 68.1251 176.178 66.5193 175.576L61.7821 173.489Z" fill="white"/>
<path d="M104.176 70.1525C102.209 69.751 100.563 70.2729 99.3186 71.0357C95.1836 73.605 93.377 76.6963 92.8953 79.8277C92.3332 83.4007 91.6507 87.0138 91.2493 90.627C91.2091 90.627 91.2091 90.627 91.169 90.627C85.1872 89.9445 79.1653 89.7438 73.2237 91.3898C71.5376 91.8715 70.1324 93.7182 70.2529 97.3314C70.3733 100.664 71.5777 103.112 73.304 103.474C76.4354 104.156 79.5668 104.919 82.7383 104.839C85.5084 104.758 88.2785 104.477 91.0486 104.156C90.9683 104.598 90.9281 105.039 90.8478 105.481C90.1653 111.463 89.9646 117.485 91.6106 123.426C92.0923 125.112 93.9391 126.518 97.5522 126.397C100.884 126.277 103.333 125.072 103.695 123.346C104.377 120.215 105.14 117.083 105.06 113.912C104.979 111.142 104.698 108.331 104.377 105.561C111.282 106.886 118.308 105.561 125.253 106.284C125.654 106.324 126.297 104.919 126.498 103.955C126.899 101.988 126.377 100.342 125.614 99.0978C123.045 94.9628 119.954 93.1562 116.822 92.6744C113.209 92.1124 109.636 91.4299 106.023 91.0285C106.987 84.5248 105.862 77.9408 106.545 71.397C106.545 70.9554 105.18 70.3532 104.176 70.1525Z" fill="white"/>
</svg>
