<svg width="367" height="367" viewBox="0 0 367 367" fill="none" xmlns="http://www.w3.org/2000/svg">
<path d="M29.6582 29.6582C33.9596 25.3581 39.7928 22.9424 45.875 22.9424C51.9572 22.9424 57.7904 25.3581 62.0918 29.6582L183.5 151.066L304.908 29.6582C307.024 27.4674 309.555 25.72 312.354 24.5179C315.152 23.3157 318.162 22.683 321.208 22.6565C324.253 22.63 327.274 23.2104 330.092 24.3637C332.911 25.517 335.472 27.2202 337.626 29.3739C339.78 31.5275 341.483 34.0886 342.636 36.9075C343.79 39.7264 344.37 42.7468 344.343 45.7925C344.317 48.8381 343.684 51.8479 342.482 54.6464C341.28 57.4449 339.533 59.9759 337.342 62.0918L215.934 183.5L337.342 304.908C341.52 309.234 343.832 315.028 343.78 321.042C343.727 327.057 341.315 332.81 337.062 337.062C332.81 341.315 327.057 343.727 321.042 343.78C315.028 343.832 309.234 341.52 304.908 337.342L183.5 215.934L62.0918 337.342C57.7657 341.52 51.9717 343.832 45.9575 343.78C39.9434 343.727 34.1904 341.315 29.9376 337.062C25.6848 332.81 23.2725 327.057 23.2202 321.042C23.168 315.028 25.4799 309.234 29.6582 304.908L151.066 183.5L29.6582 62.0918C25.3581 57.7904 22.9424 51.9572 22.9424 45.875C22.9424 39.7928 25.3581 33.9596 29.6582 29.6582Z" fill="#D63F3F"/>
<path d="M29.6582 29.6582C33.9596 25.3581 39.7928 22.9424 45.875 22.9424C51.9572 22.9424 57.7904 25.3581 62.0918 29.6582L183.5 151.066L304.908 29.6582C307.024 27.4674 309.555 25.72 312.354 24.5179C315.152 23.3157 318.162 22.683 321.208 22.6565C324.253 22.63 327.274 23.2104 330.092 24.3637C332.911 25.517 335.472 27.2202 337.626 29.3739C339.78 31.5275 341.483 34.0886 342.636 36.9075C343.79 39.7264 344.37 42.7468 344.343 45.7925C344.317 48.8381 343.684 51.8479 342.482 54.6464C341.28 57.4449 339.533 59.9759 337.342 62.0918L215.934 183.5L337.342 304.908C341.52 309.234 343.832 315.028 343.78 321.042C343.727 327.057 341.315 332.81 337.062 337.062C332.81 341.315 327.057 343.727 321.042 343.78C315.028 343.832 309.234 341.52 304.908 337.342L183.5 215.934L62.0918 337.342C57.7657 341.52 51.9717 343.832 45.9575 343.78C39.9434 343.727 34.1904 341.315 29.9376 337.062C25.6848 332.81 23.2725 327.057 23.2202 321.042C23.168 315.028 25.4799 309.234 29.6582 304.908L151.066 183.5L29.6582 62.0918C25.3581 57.7904 22.9424 51.9572 22.9424 45.875C22.9424 39.7928 25.3581 33.9596 29.6582 29.6582Z" fill="#D71919"/>
</svg>
