<svg width="19" height="19" viewBox="0 0 19 19" fill="none" xmlns="http://www.w3.org/2000/svg">
<path d="M15.1035 1.70703H3.89648C1.74791 1.70703 0 3.45494 0 5.60352V11.6216C0 13.336 1.1256 14.8293 2.75668 15.3072L4.63853 17.1892C4.74304 17.2935 4.88452 17.3523 5.03223 17.3523C5.1798 17.3523 5.32143 17.2935 5.4258 17.1892L7.15211 15.4627H15.1035C17.2521 15.4627 19 13.7148 19 11.5662V5.60352C19 3.45494 17.2521 1.70703 15.1035 1.70703ZM17.8867 11.5662C17.8867 13.1009 16.6382 14.3494 15.1035 14.3494H6.92162C6.77406 14.3494 6.63243 14.4081 6.52806 14.5125L5.03223 16.0083L3.43914 14.4153C3.36768 14.3438 3.27809 14.2931 3.17995 14.2687C1.96317 13.9659 1.11328 12.8774 1.11328 11.6216V5.60352C1.11328 4.06884 2.36181 2.82031 3.89648 2.82031H15.1035C16.6382 2.82031 17.8867 4.06884 17.8867 5.60352V11.5662Z" fill="#6A2C70"/>
<path d="M13.0345 7.04443H5.9657C5.65824 7.04443 5.40906 7.29376 5.40906 7.60107C5.40906 7.90853 5.65824 8.15771 5.9657 8.15771H13.0345C13.3419 8.15771 13.5911 7.90853 13.5911 7.60107C13.5911 7.29376 13.3419 7.04443 13.0345 7.04443Z" fill="#6A2C70"/>
<path d="M13.0345 9.01208H5.9657C5.65824 9.01208 5.40906 9.26127 5.40906 9.56873C5.40906 9.87618 5.65824 10.1254 5.9657 10.1254H13.0345C13.3419 10.1254 13.5911 9.87618 13.5911 9.56873C13.5911 9.26127 13.3419 9.01208 13.0345 9.01208Z" fill="#6A2C70"/>
</svg>
