<svg width="18" height="20" viewBox="0 0 18 20" fill="none" xmlns="http://www.w3.org/2000/svg">
<path d="M15.001 2.39H11.241C11.109 1.05014 9.97504 0 8.60104 0C7.22704 0 6.09302 1.05014 5.96002 2.39H2.20102C1.07202 2.39 0.155029 3.3079 0.155029 4.436C0.155029 5.5301 1.01803 6.4263 2.09903 6.4795V16.731C2.09903 18.0935 3.20704 19.2019 4.57004 19.2019H12.632C13.995 19.2019 15.103 18.0935 15.103 16.731V6.4795C16.184 6.4264 17.047 5.5302 17.047 4.4361C17.047 3.3079 16.13 2.39 15.001 2.39ZM8.60104 1.25639C9.28104 1.25639 9.84902 1.74526 9.97302 2.39H7.22903C7.35303 1.74526 7.92104 1.25639 8.60104 1.25639ZM13.847 16.731C13.847 17.4007 13.302 17.9455 12.632 17.9455H4.57004C3.90004 17.9455 3.35504 17.4007 3.35504 16.731V6.4821C3.86804 6.4821 13.446 6.4821 13.847 6.4821V16.731ZM15.001 5.2257C14.87 5.2257 2.31202 5.2257 2.20102 5.2257C1.76502 5.2257 1.41104 4.8715 1.41104 4.4361C1.41104 4.0007 1.76502 3.6465 2.20102 3.6465H15.001C15.437 3.6465 15.791 4.0007 15.791 4.4361C15.791 4.8715 15.437 5.2257 15.001 5.2257Z" fill="#C53535" fill-opacity="0.92"/>
<path d="M8.60104 16.4304C8.94804 16.4304 9.22903 16.1492 9.22903 15.8022V8.52749C9.22903 8.18059 8.94804 7.89929 8.60104 7.89929C8.25404 7.89929 7.97302 8.18059 7.97302 8.52749V15.8022C7.97302 16.1492 8.25404 16.4304 8.60104 16.4304Z" fill="#C53535" fill-opacity="0.92"/>
<path d="M11.8431 16.4304C12.1901 16.4304 12.4721 16.1492 12.4721 15.8022V8.52749C12.4721 8.18059 12.1901 7.89929 11.8431 7.89929C11.4961 7.89929 11.2151 8.18059 11.2151 8.52749V15.8022C11.2151 16.1492 11.4961 16.4304 11.8431 16.4304Z" fill="#C53535" fill-opacity="0.92"/>
<path d="M5.35898 16.4304C5.70498 16.4304 5.98697 16.1492 5.98697 15.8022V8.52749C5.98697 8.18059 5.70498 7.89929 5.35898 7.89929C5.01198 7.89929 4.72998 8.18059 4.72998 8.52749V15.8022C4.72998 16.1492 5.01198 16.4304 5.35898 16.4304Z" fill="#C53535" fill-opacity="0.92"/>
</svg>
