<svg width="20" height="20" viewBox="0 0 20 20" fill="none" xmlns="http://www.w3.org/2000/svg">
<path d="M6.59074 15.6517L3.56074 12.6191L14.2407 1.92671L17.2697 4.9593L6.59074 15.6517ZM2.82774 14.1511L5.05775 16.3844L1.95375 17.2581L2.82774 14.1511ZM18.9667 4.3951L14.8047 0.226268C14.5027 -0.0754225 13.9737 -0.0754225 13.6717 0.226268L1.86375 12.051C1.76575 12.1489 1.69574 12.2665 1.65974 12.3997L0.0297349 18.1984C-0.0482651 18.4766 0.0297449 18.7783 0.233745 18.982C0.386745 19.1348 0.691741 19.2446 1.01774 19.1858L6.80973 17.552C6.94273 17.5167 7.06073 17.4462 7.15873 17.3482L18.9667 5.5274C19.2807 5.214 19.2807 4.7085 18.9667 4.3951Z" fill="#323D9B"/>
</svg>
