<svg width="19" height="19" viewBox="0 0 19 19" fill="none" xmlns="http://www.w3.org/2000/svg">
<path d="M7.03713 4.78539C4.79836 7.10172 5.2869 10.9457 7.85138 12.6486C7.93587 12.7047 8.04829 12.6936 8.12087 12.6227C8.66076 12.0952 9.11748 11.5842 9.5174 10.9343C9.57859 10.8349 9.54053 10.7059 9.43788 10.6503C9.04672 10.4384 8.65749 10.041 8.43837 9.62127L8.43811 9.62142C8.17563 9.09876 8.08627 8.51288 8.22523 7.9078C8.22538 7.90783 8.22553 7.90787 8.22568 7.90787C8.38558 7.1332 9.21724 6.41258 9.85243 5.74614C9.85109 5.74569 9.84979 5.74521 9.84846 5.74476L12.2283 3.31576C13.1768 2.34777 14.7368 2.33979 15.6951 3.29805C16.663 4.24643 16.679 5.81434 15.7306 6.78229L14.2891 8.26465C14.2224 8.33326 14.2007 8.43335 14.232 8.52383C14.5639 9.48632 14.6455 10.8435 14.4231 11.8688C14.4168 11.8975 14.4523 11.9163 14.4728 11.8953L17.5408 8.76396C19.5007 6.76361 19.4841 3.50677 17.5039 1.52655C15.483 -0.494333 12.1931 -0.477515 10.1929 1.56386L7.04942 4.77225C7.04526 4.77663 7.04132 4.78108 7.03713 4.78539Z" fill="#E1D035"/>
<path d="M12.7731 13.0897C12.7731 13.0898 12.773 13.0899 12.773 13.09C12.7749 13.0892 12.7767 13.0884 12.7787 13.0876C13.4048 11.9427 13.5281 10.6296 13.2347 9.34949L13.2333 9.35086L13.2319 9.35023C12.9532 8.21013 12.1887 7.07801 11.1504 6.38097C11.061 6.32101 10.9184 6.32795 10.8347 6.39559C10.3088 6.82087 9.79393 7.36622 9.45422 8.06214C9.40087 8.1714 9.44082 8.30264 9.54596 8.36368C9.9402 8.59256 10.2962 8.92766 10.5346 9.37254L10.535 9.37228C10.7208 9.68655 10.9038 10.2829 10.7853 10.9236C10.7852 10.9236 10.7851 10.9236 10.785 10.9236C10.6744 11.7731 9.81653 12.5523 9.13461 13.2544L9.13494 13.2547C8.61584 13.7856 7.29628 15.1308 6.7679 15.6706C5.81951 16.6385 4.25161 16.6545 3.28366 15.7062C2.31571 14.7578 2.29971 13.1899 3.2481 12.2219L4.69389 10.7351C4.75942 10.6677 4.7817 10.5698 4.75255 10.4804C4.43152 9.49543 4.34357 8.16888 4.54621 7.14469C4.55185 7.11614 4.51673 7.09791 4.49635 7.1187L1.47448 10.2029C-0.505527 12.2238 -0.488746 15.5141 1.51182 17.5146C3.53259 19.4945 6.80588 19.4611 8.78581 17.4403C9.47364 16.6709 12.418 13.9448 12.7731 13.0897Z" fill="#E1D035"/>
</svg>
