<svg width="6" height="20" viewBox="0 0 6 20" fill="none" xmlns="http://www.w3.org/2000/svg">
<path d="M2.63498 4.80042C3.9606 4.80042 5.03522 3.72579 5.03522 2.40018C5.03522 1.07456 3.9606 -6.10352e-05 2.63498 -6.10352e-05C1.30936 -6.10352e-05 0.234741 1.07456 0.234741 2.40018C0.234741 3.72579 1.30936 4.80042 2.63498 4.80042Z" fill="white"/>
<path d="M2.63498 12.0012C3.9606 12.0012 5.03522 10.9266 5.03522 9.60098C5.03522 8.27537 3.9606 7.20074 2.63498 7.20074C1.30936 7.20074 0.234741 8.27537 0.234741 9.60098C0.234741 10.9266 1.30936 12.0012 2.63498 12.0012Z" fill="white"/>
<path d="M2.63498 19.202C3.9606 19.202 5.03522 18.1273 5.03522 16.8017C5.03522 15.4761 3.9606 14.4015 2.63498 14.4015C1.30936 14.4015 0.234741 15.4761 0.234741 16.8017C0.234741 18.1273 1.30936 19.202 2.63498 19.202Z" fill="white"/>
</svg>
