<svg width="21" height="19" viewBox="0 0 21 19" fill="none" xmlns="http://www.w3.org/2000/svg">
<path d="M20.0863 6.47772L14.3033 5.95698C13.9387 5.92542 13.6237 5.7045 13.4747 5.37312L11.4034 0.591753C11.0719 -0.197251 9.89525 -0.197251 9.56383 0.591753L7.50905 5.37312C7.37648 5.7045 7.04506 5.92542 6.6805 5.95698L0.897278 6.47772C0.0355938 6.55662 -0.312394 7.58233 0.333869 8.13463L4.692 11.7798C4.97371 12.0165 5.0897 12.3637 5.00685 12.7109L3.69775 17.8234C3.4989 18.6284 4.4103 19.291 5.17256 18.8651L9.99467 16.1665C10.3095 15.993 10.6906 15.993 11.0055 16.1665L15.8278 18.8651C16.59 19.291 17.5014 18.6442 17.3024 17.8234L16.0099 12.7109C15.927 12.3637 16.043 12.0165 16.3247 11.7798L20.6829 8.13463C21.3126 7.58233 20.948 6.55662 20.0863 6.47772Z" fill="#F08A5D"/>
</svg>
