<svg width="76" height="76" viewBox="0 0 76 76" fill="none" xmlns="http://www.w3.org/2000/svg">
<path d="M17.6278 58.9376C20.4377 58.4662 23.2799 58.212 26.1287 58.1777V49.8667H16.6304C16.6977 52.9134 17.0313 55.9489 17.6278 58.9376Z" fill="#9CE7F7"/>
<path d="M16.6304 47.4922H26.1287V39.1812C23.2826 39.1343 20.4447 38.8684 17.6396 38.3857C17.0366 41.3855 16.699 44.4329 16.6304 47.4922Z" fill="#9CE7F7"/>
<path d="M28.5032 60.5522V73.4935C31.8633 72.5794 34.7839 67.8658 36.4816 61.312C33.8452 60.858 31.1779 60.604 28.5032 60.5522Z" fill="#9CE7F7"/>
<path d="M36.814 11.1494L27.6957 14.1888C27.4529 14.2694 27.1906 14.2694 26.9478 14.1888L17.8174 11.1494V23.0814C23.9453 20.8081 30.6858 20.8081 36.8138 23.0814V11.1494H36.814Z" fill="#F78628"/>
<path d="M18.1738 36.0347C20.8026 36.4876 23.4615 36.7416 26.1286 36.7946V23.9245C22.7924 24.8269 19.8598 29.5047 18.1738 36.0347Z" fill="#9CE7F7"/>
<path d="M26.1284 73.4343V60.5525C23.4536 60.6043 20.7863 60.8582 18.1499 61.3124C19.8476 67.8185 22.7682 72.5319 26.1284 73.4343Z" fill="#9CE7F7"/>
<path d="M8.04614 64.4822C11.4075 68.568 15.9813 71.4788 21.1063 72.7933C18.4957 69.5755 16.6776 65.7891 15.7992 61.7397C13.1078 62.3177 10.5023 63.2396 8.04614 64.4822Z" fill="#9CE7F7"/>
<path d="M39.3667 59.365C42.3766 60.0237 45.281 61.0945 47.9983 62.547C50.5295 58.7834 51.9793 54.3975 52.1893 49.8669H40.3759C40.3175 53.0562 39.9798 56.2346 39.3667 59.365Z" fill="#9CE7F7"/>
<path d="M39.3547 37.8869C39.9785 41.0521 40.3202 44.2664 40.3758 47.4919H52.2487C52.0453 42.9251 50.5823 38.5038 48.0219 34.7168C45.2924 36.1674 42.3759 37.2341 39.3547 37.8869Z" fill="#9CE7F7"/>
<path d="M33.5371 72.793C38.6619 71.4786 43.2359 68.568 46.5973 64.482C44.1375 63.2383 41.5277 62.3167 38.8325 61.7393C37.9575 65.788 36.1437 69.5742 33.5371 72.793Z" fill="#9CE7F7"/>
<path d="M67.6833 51.0537C64.4047 51.0537 61.7468 53.7116 61.7468 56.9902V64.1139C61.7468 67.3924 64.4047 70.0503 67.6833 70.0503C70.9618 70.0503 73.6197 67.3924 73.6197 64.1139V56.9902C73.6195 53.7116 70.9618 51.0537 67.6833 51.0537ZM68.8705 58.1774H66.496V54.6156H68.8705V58.1774Z" fill="#9CE7F7"/>
<path d="M36.9923 38.35C34.1882 38.8447 31.3501 39.1225 28.5032 39.1811V47.4921H38.0015C37.935 44.4209 37.5973 41.3616 36.9923 38.35Z" fill="#9CE7F7"/>
<path d="M45.1248 18.9975C45.7805 18.9975 46.3121 18.4659 46.3121 17.8102C46.3121 17.1545 45.7805 16.6229 45.1248 16.6229C44.4691 16.6229 43.9375 17.1545 43.9375 17.8102C43.9375 18.4659 44.4691 18.9975 45.1248 18.9975Z" fill="#9CE7F7"/>
<path d="M14.2557 49.8665H2.38281C2.58648 54.4094 4.03645 58.8085 6.574 62.5823C9.29115 61.1298 12.1958 60.0591 15.2056 59.4005C14.6104 56.2567 14.2925 53.0661 14.2557 49.8665Z" fill="#9CE7F7"/>
<path d="M28.5032 23.9245V36.8063C31.17 36.7533 33.8292 36.4993 36.458 36.0464C34.772 29.5047 31.8394 24.8269 28.5032 23.9245Z" fill="#9CE7F7"/>
<path d="M28.5029 58.1775C31.3528 58.2235 34.1948 58.4896 37.0037 58.973C37.6022 55.9727 37.936 52.9254 38.001 49.8667H28.5027V58.1775H28.5029Z" fill="#9CE7F7"/>
<path d="M15.2767 37.8869C12.2726 37.2337 9.37221 36.1711 6.65698 34.7288C4.10302 38.5137 2.64432 42.9305 2.44214 47.4919H14.315C14.3508 44.2682 14.6727 41.054 15.2767 37.8869Z" fill="#9CE7F7"/>
<path d="M21.0946 24.5657C15.9698 25.8802 11.3958 28.7908 8.03442 32.8767C10.4797 34.1156 13.0731 35.0372 15.7517 35.6194C16.6382 31.5659 18.4688 27.7784 21.0946 24.5657Z" fill="#9CE7F7"/>
<path d="M41.3731 7.12477L27.3157 2.43506L13.2583 7.12477L27.3157 11.8145L41.3731 7.12477Z" fill="#F78628"/>
<path d="M38.8207 35.5598C41.4993 34.9778 44.0926 34.0562 46.5379 32.8171C43.1765 28.7314 38.6027 25.8206 33.4778 24.5061C36.1037 27.7192 37.9342 31.5063 38.8207 35.5598Z" fill="#9CE7F7"/>
<path d="M68.8714 48.7742V21.9655C68.8714 19.0149 66.4793 16.6229 63.5287 16.6229C60.578 16.6229 58.186 19.0149 58.186 21.9655V34.4319C58.186 36.3992 56.5914 37.9938 54.6241 37.9938H52.4396C49.8394 31.9163 45.135 26.9801 39.1896 24.0909V10.3539L43.9388 8.77479V14.4737C42.0842 15.1294 41.1121 17.1644 41.7679 19.0192C42.4236 20.8739 44.4586 21.8458 46.3133 21.1901C48.1681 20.5343 49.14 18.4993 48.4842 16.6446C48.1257 15.6303 47.3276 14.8324 46.3133 14.4737V7.12477C46.3146 6.61432 45.9895 6.16011 45.5059 5.99692L27.6964 0.0602755C27.4535 -0.0202546 27.1913 -0.0202546 26.9484 0.0602755L9.13931 5.99671C8.51637 6.20144 8.17742 6.87232 8.38194 7.49525C8.49975 7.85359 8.78076 8.13481 9.13931 8.25262L15.4556 10.3539V24.0906C1.87199 30.6434 -3.82775 46.9667 2.72459 60.5508C9.27715 74.1344 25.6007 79.8343 39.1843 73.2818C51.4423 67.3686 57.4753 53.3318 53.3297 40.3686H54.6239C57.9024 40.3686 60.5604 37.7107 60.5604 34.4322V21.9658C60.5604 20.3264 61.8893 18.9976 63.5285 18.9976C65.1676 18.9976 66.4966 20.3266 66.4966 21.9658V48.7746C62.4113 49.3643 59.3778 52.8629 59.3729 56.9906V64.1143C59.3729 68.7043 63.0939 72.4253 67.6839 72.4253C72.2739 72.4253 75.9949 68.7043 75.9949 64.1143V56.9906C75.9902 52.8627 72.9567 49.3641 68.8714 48.7742ZM28.5038 39.1811C31.3499 39.1342 34.1878 38.8683 36.9929 38.3856C37.5961 41.3854 37.9337 44.4328 38.0021 47.4921H28.5038V39.1811ZM28.5038 36.8065V23.9245C31.8401 24.8386 34.7726 29.5166 36.4586 36.0347C33.8301 36.4916 31.1711 36.7496 28.5038 36.8065ZM26.1292 23.9364V36.8065C23.4624 36.7535 20.8032 36.4995 18.1744 36.0466C19.8605 29.5166 22.793 24.8267 26.1292 23.9245V23.9364ZM26.1292 39.1811V47.4921H16.631C16.6895 44.4217 17.0193 41.3624 17.6165 38.35C20.4284 38.846 23.2745 39.1238 26.1292 39.1811ZM14.2564 47.4921H2.38351C2.58697 42.9253 4.04993 38.504 6.61028 34.717C9.32551 36.1593 12.2257 37.222 15.23 37.8751C14.6213 41.0454 14.2956 44.2639 14.2564 47.4921ZM14.2564 49.8665C14.3107 53.0555 14.6445 56.2339 15.2536 59.3648C12.2438 60.0235 9.33936 61.0942 6.622 62.5468C4.09488 58.7821 2.64939 54.3962 2.44274 49.8667H14.3156L14.2564 49.8665ZM16.631 49.8665H26.1292V58.1775C23.2794 58.2235 20.4374 58.4896 17.6284 58.973C17.03 55.9727 16.6961 52.9253 16.631 49.8665ZM26.1292 60.5523V73.4935C22.7691 72.5794 19.8485 67.8658 18.1508 61.312C20.7872 60.858 23.4545 60.604 26.1292 60.5523ZM28.5038 73.4935V60.5523C31.1786 60.604 33.8459 60.858 36.4823 61.3122C34.7845 67.8185 31.8637 72.5321 28.5038 73.4343V73.4935ZM28.5038 58.1775V49.8665H38.0021C37.9467 52.9123 37.6248 55.9475 37.0404 58.9372C34.2187 58.464 31.3648 58.2103 28.5038 58.1775ZM40.3767 49.8665H52.2496C52.0459 54.4094 50.5959 58.8085 48.0584 62.5823C45.3412 61.1298 42.4366 60.0591 39.4267 59.4005C40.022 56.2567 40.3398 53.0661 40.3767 49.8665ZM40.3767 47.4921C40.3251 44.2669 39.9875 41.0525 39.3675 37.8871C42.3716 37.2339 45.272 36.1712 47.9872 34.7289C50.5371 38.5149 51.9916 42.9319 52.1901 47.4921H40.3767ZM46.5505 32.8175C44.1052 34.0564 41.5118 34.978 38.8332 35.5602C37.9555 31.5329 36.1459 27.7675 33.5497 24.5659C38.641 25.8781 43.1874 28.7663 46.5385 32.8175H46.5505ZM45.1256 18.9972C44.4699 18.9972 43.9383 18.4657 43.9383 17.8099C43.9383 17.1542 44.4699 16.6226 45.1256 16.6226C45.7814 16.6226 46.3129 17.1542 46.3129 17.8099C46.3129 18.4657 45.7814 18.9972 45.1256 18.9972ZM27.3165 2.43506L41.3739 7.12477L27.3165 11.8145L13.2591 7.12477L27.3165 2.43506ZM17.8182 11.1374L26.9365 14.1769C27.1793 14.2574 27.4416 14.2574 27.6845 14.1769L36.8027 11.1374V23.0695C30.6747 20.7961 23.9343 20.7961 17.8063 23.0695V11.1494L17.8182 11.1374ZM21.0953 24.5538C18.4991 27.7552 16.6895 31.5207 15.8118 35.5481C13.1332 34.966 10.5399 34.0444 8.09455 32.8054C11.4506 28.7565 16.0012 25.8723 21.0953 24.5657V24.5538ZM8.03511 64.4823C10.4949 63.2385 13.1047 62.3169 15.7999 61.7395C16.6765 65.7931 18.4947 69.5838 21.107 72.805C15.9805 71.4873 11.4065 68.5722 8.04704 64.4823H8.03511ZM33.5142 72.7931C36.1293 69.5765 37.9512 65.7901 38.8332 61.7395C41.5209 62.3224 44.1224 63.2483 46.5743 64.494C43.2174 68.5712 38.6528 71.4773 33.538 72.7931H33.5142ZM73.6203 64.1141C73.6203 67.3926 70.9624 70.0506 67.6839 70.0506C64.4054 70.0506 61.7474 67.3926 61.7474 64.1141V56.9904C61.7474 53.7119 64.4054 51.054 67.6839 51.054C70.9624 51.054 73.6203 53.7119 73.6203 56.9904V64.1141Z" fill="#414A52"/>
<path d="M68.8707 54.6158H66.4961V58.1777H68.8707V54.6158Z" fill="#414A52"/>
<path d="M48.6866 71.2379H46.312V73.6124H48.6866V71.2379Z" fill="#414A52"/>
<path d="M53.4359 71.2379H51.0613V73.6124H53.4359V71.2379Z" fill="#414A52"/>
<path d="M58.1849 71.2379H55.8103V73.6124H58.1849V71.2379Z" fill="#414A52"/>
</svg>
