<svg width="31" height="31" viewBox="0 0 31 31" fill="none" xmlns="http://www.w3.org/2000/svg">
<path d="M30.2726 26.7617L21.6508 18.1398C21.4096 17.8987 21.0187 17.8987 20.7774 18.1398L19.8948 19.0225L18.5673 17.695C20.2417 15.8157 21.2609 13.3405 21.2609 10.6314C21.2609 4.76976 16.4921 0.000915527 10.6304 0.000915527C4.76878 0.000915527 0 4.76976 0 10.6315C0 16.4932 4.76884 21.262 10.6305 21.262C13.3396 21.262 15.8148 20.2428 17.6941 18.5684L19.0215 19.8959L18.1389 20.7785C17.8977 21.0197 17.8977 21.4107 18.1389 21.6519L26.7606 30.2736C26.7606 30.2736 26.7606 30.2736 26.7607 30.2736C27.2448 30.7577 27.8807 30.9998 28.5166 30.9998C29.1525 30.9998 29.7885 30.7577 30.2725 30.2736C30.7416 29.8046 30.9999 29.181 30.9999 28.5177C30.9999 27.8542 30.7416 27.2307 30.2726 26.7617ZM10.6305 20.0269C5.44981 20.0269 1.23503 15.8121 1.23503 10.6315C1.23503 5.45079 5.44981 1.23601 10.6305 1.23601C15.8112 1.23601 20.026 5.45079 20.026 10.6315C20.026 15.8122 15.8112 20.0269 10.6305 20.0269ZM29.3993 29.4002C28.9126 29.8869 28.1208 29.887 27.634 29.4002H27.634L19.4489 21.2151L21.2141 19.4499L29.3993 27.6349C29.635 27.8707 29.7648 28.1842 29.7648 28.5176C29.7649 28.851 29.635 29.1645 29.3993 29.4002Z" fill="black"/>
<path d="M3.53042 11.0209C3.52346 10.892 3.51995 10.7608 3.51995 10.631C3.51995 10.2899 3.24349 10.0135 2.90243 10.0135C2.56137 10.0135 2.28491 10.2899 2.28491 10.631C2.28491 10.7829 2.28903 10.9365 2.2972 11.0875C2.315 11.4167 2.58752 11.6717 2.91333 11.6717C2.92459 11.6717 2.93585 11.6714 2.94717 11.6708C3.28769 11.6525 3.54883 11.3616 3.53042 11.0209Z" fill="black"/>
<path d="M10.6306 17.7417C7.94488 17.7417 5.51684 16.2547 4.2941 13.8612C4.13892 13.5575 3.7671 13.437 3.46321 13.5922C3.15951 13.7473 3.03902 14.1193 3.1942 14.423C4.6291 17.2319 7.47855 18.9767 10.6305 18.9767C10.9716 18.9767 11.248 18.7003 11.248 18.3592C11.248 18.0182 10.9716 17.7417 10.6306 17.7417Z" fill="black"/>
</svg>
