<svg width="215" height="215" viewBox="0 0 215 215" fill="none" xmlns="http://www.w3.org/2000/svg">
<path d="M112.875 88.2264L64.5 136.601V150.5H78.3986L126.774 102.125L112.875 88.2264ZM120.476 80.625L134.375 94.5236L148.274 80.625L134.375 66.7264L120.476 80.625ZM107.5 215C48.1294 215 0 166.871 0 107.5C0 48.1294 48.1294 0 107.5 0C166.871 0 215 48.1294 215 107.5C215 166.871 166.871 215 107.5 215ZM107.5 204.25C160.934 204.25 204.25 160.934 204.25 107.5C204.25 54.0664 160.934 10.75 107.5 10.75C54.0664 10.75 10.75 54.0664 10.75 107.5C10.75 160.934 54.0664 204.25 107.5 204.25ZM138.176 55.3243L159.676 76.8243C161.775 78.9234 161.775 82.3266 159.676 84.4257L84.4257 159.676C83.4177 160.684 82.0505 161.25 80.625 161.25H59.125C56.1565 161.25 53.75 158.844 53.75 155.875V134.375C53.75 132.949 54.3163 131.582 55.3243 130.574L130.574 55.3243C132.673 53.2252 136.077 53.2252 138.176 55.3243Z" fill="white"/>
</svg>
