<svg width="182" height="182" viewBox="0 0 182 182" fill="none" xmlns="http://www.w3.org/2000/svg">
<path d="M91 15.1667C132.814 15.1667 166.833 49.1855 166.833 91C166.833 132.814 132.814 166.833 91 166.833C49.1855 166.833 15.1667 132.814 15.1667 91C15.1667 49.1855 49.1855 15.1667 91 15.1667ZM91 0C40.7453 0 0 40.7453 0 91C0 141.255 40.7453 182 91 182C141.255 182 182 141.255 182 91C182 40.7453 141.255 0 91 0Z" fill="white"/>
<path d="M91.0001 151.667C95.1882 151.667 98.5834 148.271 98.5834 144.083C98.5834 139.895 95.1882 136.5 91.0001 136.5C86.8119 136.5 83.4167 139.895 83.4167 144.083C83.4167 148.271 86.8119 151.667 91.0001 151.667Z" fill="white"/>
<path d="M128.917 68.25C128.917 86.6016 115.873 101.92 98.5833 105.408V121.333C98.5833 125.504 95.1708 128.917 90.9999 128.917C86.8291 128.917 83.4166 125.504 83.4166 121.333V98.5833C83.4166 94.4125 86.8291 91 90.9999 91C103.512 91 113.75 80.7625 113.75 68.25C113.75 55.7375 103.512 45.5 90.9999 45.5C78.4874 45.5 68.2499 55.7375 68.2499 68.25C68.2499 72.4208 64.8374 75.8333 60.6666 75.8333C56.4958 75.8333 53.0833 72.4208 53.0833 68.25C53.0833 47.32 70.0699 30.3333 90.9999 30.3333C111.93 30.3333 128.917 47.32 128.917 68.25Z" fill="white"/>
</svg>
