<svg width="118" height="118" viewBox="0 0 118 118" fill="none" xmlns="http://www.w3.org/2000/svg">
<path d="M63.9168 36.875C63.9168 38.179 63.3987 39.4295 62.4767 40.3516C61.5546 41.2736 60.3041 41.7916 59.0001 41.7916C57.6961 41.7916 56.4455 41.2736 55.5235 40.3516C54.6014 39.4295 54.0834 38.179 54.0834 36.875C54.0834 35.571 54.6014 34.3204 55.5235 33.3984C56.4455 32.4763 57.6961 31.9583 59.0001 31.9583C60.3041 31.9583 61.5546 32.4763 62.4767 33.3984C63.3987 34.3204 63.9168 35.571 63.9168 36.875ZM49.1667 55.3125C49.1667 54.3345 49.5553 53.3966 50.2468 52.705C50.9383 52.0135 51.8763 51.625 52.8542 51.625H60.2293C61.2072 51.625 62.1452 52.0135 62.8367 52.705C63.5282 53.3966 63.9168 54.3345 63.9168 55.3125V76.2083H67.6043C68.5822 76.2083 69.5202 76.5968 70.2117 77.2884C70.9033 77.9799 71.2918 78.9178 71.2918 79.8958C71.2918 80.8738 70.9033 81.8117 70.2117 82.5033C69.5202 83.1948 68.5822 83.5833 67.6043 83.5833H52.8542C51.8763 83.5833 50.9383 83.1948 50.2468 82.5033C49.5553 81.8117 49.1667 80.8738 49.1667 79.8958C49.1667 78.9178 49.5553 77.9799 50.2468 77.2884C50.9383 76.5968 51.8763 76.2083 52.8542 76.2083H56.5418V59H52.8542C51.8763 59 50.9383 58.6115 50.2468 57.9199C49.5553 57.2284 49.1667 56.2905 49.1667 55.3125Z" fill="white"/>
<path fill-rule="evenodd" clip-rule="evenodd" d="M59.0001 4.91669C29.1313 4.91669 4.91675 29.1313 4.91675 59C4.91675 88.8688 29.1313 113.083 59.0001 113.083C88.8688 113.083 113.083 88.8688 113.083 59C113.083 29.1313 88.8688 4.91669 59.0001 4.91669ZM12.2917 59C12.2917 46.6122 17.2128 34.7318 25.9723 25.9722C34.7318 17.2127 46.6123 12.2917 59.0001 12.2917C71.3879 12.2917 83.2683 17.2127 92.0279 25.9722C100.787 34.7318 105.708 46.6122 105.708 59C105.708 71.3878 100.787 83.2683 92.0279 92.0278C83.2683 100.787 71.3879 105.708 59.0001 105.708C46.6123 105.708 34.7318 100.787 25.9723 92.0278C17.2128 83.2683 12.2917 71.3878 12.2917 59Z" fill="white"/>
</svg>
