<svg width="847" height="809" viewBox="0 0 847 809" fill="none" xmlns="http://www.w3.org/2000/svg">
<path d="M819.578 284.8L565.678 247.9L452.178 17.8004C449.078 11.5004 443.978 6.40037 437.678 3.30037C421.878 -4.49963 402.678 2.00037 394.778 17.8004L281.278 247.9L27.3784 284.8C20.3784 285.8 13.9784 289.1 9.07844 294.1C3.15461 300.189 -0.109691 308.38 0.00281459 316.875C0.11532 325.369 3.59543 333.471 9.67844 339.4L193.378 518.5L149.978 771.4C148.961 777.283 149.612 783.334 151.858 788.866C154.104 794.398 157.855 799.189 162.685 802.698C167.516 806.206 173.233 808.291 179.188 808.716C185.144 809.141 191.099 807.888 196.378 805.1L423.478 685.7L650.578 805.1C656.778 808.4 663.978 809.5 670.878 808.3C688.278 805.3 699.978 788.8 696.978 771.4L653.578 518.5L837.278 339.4C842.278 334.5 845.578 328.1 846.578 321.1C849.278 303.6 837.078 287.4 819.578 284.8V284.8ZM576.278 493.3L612.378 703.6L423.478 604.4L234.578 703.7L270.678 493.4L117.878 344.4L329.078 313.7L423.478 122.4L517.878 313.7L729.078 344.4L576.278 493.3Z" fill="white"/>
</svg>
